<svg data-v-0dd9719b="" version="1.0" xmlns="http://www.w3.org/2000/svg" xmlns:xlink="http://www.w3.org/1999/xlink" width="100%" height="100%" viewBox="0 0 340.000000 250.000000" preserveAspectRatio="xMidYMid meet" color-interpolation-filters="sRGB" style="margin: auto;"> <rect data-v-0dd9719b="" x="0" y="0" width="100%" height="100%" fill="#fff" fill-opacity="1" class="background"></rect> <rect data-v-0dd9719b="" x="0" y="0" width="100%" height="100%" fill="url(#watermark)" fill-opacity="1" class="watermarklayer"></rect> <g data-v-0dd9719b="" fill="#c11647" class="icon-text-wrapper icon-svg-group iconsvg" transform="translate(47.920005798339844,95)"><g class="iconsvg-imagesvg" transform="translate(0,0)"><g><rect fill="#c11647" fill-opacity="0" stroke-width="2" x="0" y="0" width="60" height="60" class="image-rect"></rect> <svg x="0" y="0" width="60" height="60" filtersec="colorsb1584332889" class="image-svg-svg primary" style="overflow: visible;"><svg xmlns="http://www.w3.org/2000/svg" viewBox="1.8199996948242188 0 80 80"><path fill="#C11647" d="M76.82 70H18l23.82-47.64 15.49 30.97h-7.46l-8.03-16.06-13.03 26.06h44.7L41.82 0l-40 80h80z"></path></svg></svg> <!----></g></g> <g transform="translate(67,17.625)"><g data-gra="path-name" fill-rule="" class="tp-name iconsvg-namesvg"><g transform="scale(1)"><g><path d="M13.38 0.31Q9.89 0.31 7.27-1.2 4.65-2.7 3.25-5.51 1.85-8.32 1.85-12.08L1.85-12.08Q1.85-15.85 3.25-18.64 4.65-21.43 7.27-22.93 9.89-24.44 13.38-24.44L13.38-24.44Q15.64-24.44 17.63-23.77 19.61-23.1 21.15-21.84L21.15-21.84Q21.6-21.49 21.77-21.12 21.94-20.74 21.94-20.19L21.94-20.19Q21.94-19.44 21.53-18.93 21.12-18.41 20.54-18.41L20.54-18.41Q19.85-18.41 19.13-18.89L19.13-18.89Q17.66-19.99 16.39-20.42 15.13-20.84 13.59-20.84L13.59-20.84Q10.03-20.84 8.2-18.62 6.37-16.39 6.37-12.08L6.37-12.08Q6.37-7.74 8.2-5.51 10.03-3.29 13.59-3.29L13.59-3.29Q15.06-3.29 16.31-3.73 17.56-4.18 19.13-5.24L19.13-5.24Q19.48-5.44 19.82-5.58 20.16-5.72 20.54-5.72L20.54-5.72Q21.12-5.72 21.53-5.2 21.94-4.69 21.94-3.94L21.94-3.94Q21.94-3.42 21.77-3.03 21.6-2.64 21.15-2.29L21.15-2.29Q19.61-1.03 17.63-0.36 15.64 0.31 13.38 0.31L13.38 0.31ZM36.11 0.31Q32.58 0.31 30-1.2 27.42-2.7 26.01-5.51 24.61-8.32 24.61-12.08L24.61-12.08Q24.61-15.85 26-18.64 27.38-21.43 29.98-22.93 32.58-24.44 36.11-24.44L36.11-24.44Q39.63-24.44 42.22-22.93 44.8-21.43 46.19-18.64 47.58-15.85 47.58-12.08L47.58-12.08Q47.58-8.32 46.17-5.51 44.77-2.7 42.18-1.2 39.6 0.31 36.11 0.31L36.11 0.31ZM36.11-3.22Q39.43-3.22 41.29-5.51 43.16-7.8 43.16-12.08L43.16-12.08Q43.16-16.36 41.29-18.64 39.43-20.91 36.11-20.91L36.11-20.91Q32.76-20.91 30.89-18.64 29.02-16.36 29.02-12.08L29.02-12.08Q29.02-7.8 30.89-5.51 32.76-3.22 36.11-3.22L36.11-3.22ZM54.11 0Q53.12 0 52.57-0.55 52.03-1.1 52.03-2.05L52.03-2.05 52.03-22.11Q52.03-23.1 52.62-23.7 53.22-24.3 54.22-24.3L54.22-24.3Q55.24-24.3 55.84-23.7 56.44-23.1 56.44-22.11L56.44-22.11 56.44-3.63 66.06-3.63Q68.11-3.63 68.11-1.81L68.11-1.81Q68.11 0 66.06 0L66.06 0 54.11 0ZM74.65 0.17Q73.62 0.17 73.02-0.43 72.42-1.03 72.42-2.02L72.42-2.02 72.42-20.5 66.2-20.5Q64.14-20.5 64.14-22.32L64.14-22.32Q64.14-24.13 66.2-24.13L66.2-24.13 83.07-24.13Q85.12-24.13 85.12-22.32L85.12-22.32Q85.12-20.5 83.07-20.5L83.07-20.5 76.84-20.5 76.84-2.02Q76.84-1.03 76.24-0.43 75.64 0.17 74.65 0.17L74.65 0.17ZM107.03-2.77Q107.44-2.16 107.44-1.57L107.44-1.57Q107.44-0.79 106.81-0.27 106.17 0.24 105.32 0.24L105.32 0.24Q104.77 0.24 104.27-0.02 103.78-0.27 103.43-0.79L103.43-0.79 98.88-7.7Q98.2-8.8 97.43-9.24 96.66-9.69 95.42-9.69L95.42-9.69 92.07-9.69 92.07-2.02Q92.07-0.99 91.49-0.39 90.91 0.21 89.91 0.21L89.91 0.21Q88.92 0.21 88.32-0.39 87.72-0.99 87.72-2.02L87.72-2.02 87.72-22.04Q87.72-23.03 88.29-23.58 88.85-24.13 89.85-24.13L89.85-24.13 98.4-24.13Q102.51-24.13 104.65-22.3 106.79-20.47 106.79-17.01L106.79-17.01Q106.79-14.2 105.2-12.41 103.61-10.61 100.7-10.1L100.7-10.1Q101.69-9.86 102.44-9.24 103.19-8.63 103.91-7.53L103.91-7.53 107.03-2.77ZM97.79-13.07Q100.29-13.07 101.45-14.02 102.61-14.96 102.61-16.91L102.61-16.91Q102.61-18.89 101.45-19.8 100.29-20.71 97.79-20.71L97.79-20.71 92.04-20.71 92.04-13.07 97.79-13.07ZM133.11-2.64Q133.31-2.19 133.31-1.75L133.31-1.75Q133.31-0.96 132.68-0.41 132.05 0.14 131.23 0.14L131.23 0.14Q130.68 0.14 130.2-0.15 129.72-0.44 129.45-1.06L129.45-1.06 127.39-5.65 115.35-5.65 113.29-1.06Q113.02-0.44 112.54-0.15 112.06 0.14 111.48 0.14L111.48 0.14Q110.69 0.14 110.04-0.41 109.39-0.96 109.39-1.75L109.39-1.75Q109.39-2.19 109.59-2.64L109.59-2.64 119.04-22.93Q119.35-23.62 119.98-23.98 120.62-24.34 121.33-24.34L121.33-24.34Q122.05-24.34 122.69-23.98 123.32-23.62 123.63-22.93L123.63-22.93 133.11-2.64ZM121.37-19.24L116.85-9.07 125.89-9.07 121.37-19.24ZM138.76 0Q137.76 0 137.2-0.55 136.63-1.1 136.63-2.09L136.63-2.09 136.63-22.04Q136.63-23.03 137.2-23.58 137.76-24.13 138.76-24.13L138.76-24.13 145.53-24.13Q151.45-24.13 154.72-20.96 157.99-17.8 157.99-12.08L157.99-12.08Q157.99-6.33 154.72-3.17 151.45 0 145.53 0L145.53 0 138.76 0ZM145.26-3.59Q153.58-3.59 153.58-12.08L153.58-12.08Q153.58-20.54 145.26-20.54L145.26-20.54 141.05-20.54 141.05-3.59 145.26-3.59ZM164.56 0Q163.57 0 163.01-0.55 162.44-1.1 162.44-2.09L162.44-2.09 162.44-22.04Q162.44-23.03 163.01-23.58 163.57-24.13 164.56-24.13L164.56-24.13 176.92-24.13Q177.91-24.13 178.46-23.69 179.01-23.24 179.01-22.42L179.01-22.42Q179.01-21.56 178.46-21.1 177.91-20.64 176.92-20.64L176.92-20.64 166.75-20.64 166.75-14 176.24-14Q177.23-14 177.78-13.55 178.32-13.11 178.32-12.25L178.32-12.25Q178.32-11.43 177.78-10.99 177.23-10.54 176.24-10.54L176.24-10.54 166.75-10.54 166.75-3.49 176.92-3.49Q177.91-3.49 178.46-3.03 179.01-2.57 179.01-1.71L179.01-1.71Q179.01-0.89 178.46-0.44 177.91 0 176.92 0L176.92 0 164.56 0Z" transform="translate(-1.850000023841858, 24.440000534057617)"></path></g> <!----> <!----> <!----> <!----> <!----> <!----> <!----></g></g> <!----></g></g><defs v-gra="od"></defs></svg>